<svg width="48" height="48" viewBox="0 0 48 48" fill="none" xmlns="http://www.w3.org/2000/svg">
<path d="M19.7907 3.09375C17.3625 3.09375 15.1594 3.345 13.6313 3.7275C12.8625 3.91875 12.2625 4.15031 11.925 4.35094C11.8031 4.42406 11.7656 4.46156 11.7281 4.5C11.7656 4.53844 11.8031 4.57594 11.925 4.64906C12.2625 4.84969 12.8625 5.08125 13.6313 5.2725C15.1594 5.655 17.3625 5.90625 19.7907 5.90625C22.2188 5.90625 24.4219 5.655 25.95 5.2725C26.7188 5.08125 27.3188 4.84969 27.6563 4.64906C27.7781 4.57594 27.8156 4.53844 27.8531 4.5C27.8156 4.46156 27.7781 4.42406 27.6563 4.35094C27.3188 4.15031 26.7188 3.91875 25.95 3.7275C24.4219 3.345 22.2188 3.09375 19.7907 3.09375ZM11.6344 6.38719V10.1437C12.2438 10.4531 13.0406 10.7625 13.6313 10.9125C15.1594 11.2969 17.3625 11.55 19.7907 11.55C22.2188 11.55 24.4219 11.2969 25.95 10.9125C27.075 10.6406 27.2063 10.6125 27.9469 10.1437V6.38719C27.4875 6.58969 26.9625 6.75937 26.3625 6.90937C24.6281 7.34156 22.3313 7.59375 19.7907 7.59375C17.25 7.59375 14.9531 7.34156 13.2188 6.90937C12.6188 6.75937 12.0938 6.58969 11.6344 6.38719ZM12.4406 12.3375C11.6625 12.6094 10.8938 13.0969 10.2656 13.725C9.27002 14.7094 8.6344 16.0312 8.6344 17.25V23.25C8.6344 23.7188 8.84065 24.1219 9.37127 24.5813C9.90002 25.0313 10.7531 25.4719 11.8031 25.8281C13.9219 26.5312 16.8563 26.9062 19.7907 26.9062C22.7157 26.9062 25.6594 26.5312 27.7781 25.8281C28.8281 25.4719 29.6813 25.0313 30.2063 24.5813C30.7407 24.1219 30.9469 23.7188 30.9469 23.25V17.25C30.9469 16.0312 30.3094 14.7094 29.3157 13.725C28.6875 13.0969 27.9281 12.6094 27.1406 12.3375C26.8969 12.4125 26.6344 12.4875 26.3625 12.5531C24.6281 12.9844 22.3313 13.2375 19.7907 13.2375C17.25 13.2375 14.9531 12.9844 13.2188 12.5531C12.9469 12.4875 12.6844 12.4125 12.4406 12.3375ZM8.6344 26.1469V32.25C8.6344 32.7188 8.84065 33.1219 9.37127 33.5813C9.90002 34.0313 10.7531 34.4719 11.8031 34.8281C13.9219 35.5312 16.8563 35.9062 19.7907 35.9062C22.7157 35.9062 25.6594 35.5312 27.7781 34.8281C28.8281 34.4719 29.6813 34.0313 30.2063 33.5813C30.7407 33.1219 30.9469 32.7188 30.9469 32.25V26.1469C30.2156 26.6719 29.325 27.0844 28.3031 27.4219C25.9219 28.2188 22.8563 28.5938 19.7907 28.5938C16.7157 28.5938 13.6594 28.2188 11.2781 27.4219C10.2563 27.0844 9.36096 26.6719 8.6344 26.1469ZM8.6344 35.1469V41.25C8.6344 41.7188 8.84065 42.1219 9.37127 42.5813C9.90002 43.0312 10.7531 43.4719 11.8031 43.8281C13.9219 44.5312 16.8563 44.9062 19.7907 44.9062C21.4313 44.9062 23.0906 44.7844 24.5906 44.5594C24.2906 44.1375 24.1031 43.6594 24.1031 43.1156C24.1031 42.0094 24.8813 41.1375 25.8563 40.5938C26.4469 40.2562 27.15 40.0219 27.9188 39.8812C28.125 39.0469 28.8 38.3813 29.5969 37.9313C30 37.7062 30.4594 37.5188 30.9469 37.3781V35.1469C30.2156 35.6719 29.325 36.0844 28.3031 36.4219C25.9219 37.2188 22.8563 37.5938 19.7907 37.5938C16.7157 37.5938 13.6594 37.2188 11.2781 36.4219C10.2563 36.0844 9.36096 35.6719 8.6344 35.1469ZM33.1875 38.775C32.0719 38.775 31.0688 39.0375 30.4219 39.4031C30.2063 39.525 30.0469 39.6469 29.9156 39.7594C31.0969 39.825 32.1844 40.1156 33.0375 40.5938C33.6188 40.9219 34.1344 41.3625 34.4438 41.8969C34.725 41.1937 35.325 40.6219 36.0375 40.2281C36.225 40.125 36.4219 40.0312 36.6282 39.9375C36.4875 39.7687 36.2719 39.5812 35.9531 39.4031C35.3063 39.0375 34.3031 38.775 33.1875 38.775ZM39.6282 41.0719C38.5125 41.0719 37.5094 41.3344 36.8625 41.7C36.2063 42.0656 35.9719 42.4594 35.9719 42.75C35.9719 43.0406 36.2063 43.4344 36.8625 43.8C37.5094 44.1656 38.5125 44.4281 39.6282 44.4281C40.7438 44.4281 41.7469 44.1656 42.3938 43.8C43.05 43.4344 43.2844 43.0406 43.2844 42.75C43.2844 42.4594 43.05 42.0656 42.3938 41.7C41.7469 41.3344 40.7438 41.0719 39.6282 41.0719ZM29.4469 41.4375C28.3313 41.4375 27.3281 41.7 26.6813 42.0656C26.025 42.4313 25.7906 42.825 25.7906 43.1156C25.7906 43.4062 26.025 43.8 26.6813 44.1656C27.3281 44.5312 28.3313 44.7937 29.4469 44.7937C30.5625 44.7937 31.5656 44.5312 32.2125 44.1656C32.8688 43.8 33.1031 43.4062 33.1031 43.1156C33.1031 42.825 32.8688 42.4313 32.2125 42.0656C31.5656 41.7 30.5625 41.4375 29.4469 41.4375Z" fill="#F8F8F8"/>
</svg>
