<svg width="48" height="48" viewBox="0 0 48 48" fill="none" xmlns="http://www.w3.org/2000/svg">
<path d="M20.392 10.684L10.702 20.376C9.56154 21.4825 8.65253 22.8047 8.02785 24.2658C7.40316 25.7268 7.07528 27.2975 7.06327 28.8865C7.05126 30.4755 7.35537 32.0509 7.95791 33.5213C8.56044 34.9916 9.44937 36.3274 10.573 37.451C11.6966 38.5746 13.0324 39.4635 14.5027 40.0661C15.973 40.6686 17.5485 40.9727 19.1375 40.9607C20.7264 40.9487 22.2971 40.6208 23.7582 39.9961C25.2193 39.3715 26.5415 38.4624 27.648 37.322L37.338 27.632C39.5466 25.3768 40.7762 22.3413 40.7598 19.1848C40.7434 16.0283 39.4823 13.0057 37.2504 10.7735C35.0185 8.5414 31.9961 7.27995 28.8396 7.26319C25.6831 7.24642 22.6475 8.47569 20.392 10.684Z" stroke="#F8F8F8" stroke-width="3" stroke-linecap="round" stroke-linejoin="round"/>
<path d="M33.692 31.278C29.8254 29.8368 26.3601 27.4907 23.586 24.436C20.532 21.6616 18.1866 18.1963 16.746 14.33M24.012 14.33C24.4877 13.8505 25.0537 13.47 25.6772 13.2103C26.3008 12.9506 26.9695 12.8169 27.645 12.8169C28.3204 12.8169 28.9892 12.9506 29.6127 13.2103C30.2363 13.47 30.8022 13.8505 31.278 14.33" stroke="#F8F8F8" stroke-width="3" stroke-linecap="round" stroke-linejoin="round"/>
</svg>
