<svg width="76" height="68" viewBox="0 0 76 68" fill="none" xmlns="http://www.w3.org/2000/svg">
<path fill-rule="evenodd" clip-rule="evenodd" d="M23.4877 15.7928C20.7422 18.4672 18.6438 21.7204 17.3494 25.3092C16.0551 28.898 15.5983 32.7296 16.0132 36.5174C16.1331 37.6404 15.7967 38.7645 15.078 39.6424C14.3594 40.5203 13.3174 41.08 12.1811 41.1985C11.0449 41.317 9.90762 40.9846 9.01942 40.2743C8.13121 39.564 7.56486 38.5341 7.44496 37.4111C6.89504 32.3513 7.50856 27.2341 9.23971 22.4414C10.9709 17.6488 13.7749 13.3045 17.4426 9.73292C30.9451 -3.42527 52.7057 -3.20398 66.0488 10.167C79.3963 23.5422 79.3145 45.0541 65.8163 58.2123C59.5671 64.3145 51.1773 67.799 42.3937 67.9405C39.0742 67.9982 35.7635 67.5826 32.564 66.7064C32.0064 66.5689 31.4824 66.3225 31.0227 65.9818C30.563 65.641 30.1769 65.2128 29.8873 64.7222C29.5977 64.2317 29.4103 63.6888 29.3363 63.1256C29.2622 62.5624 29.303 61.9902 29.4562 61.4428C29.6094 60.8954 29.8719 60.3839 30.2282 59.9383C30.5846 59.4928 31.0275 59.1222 31.531 58.8485C32.0345 58.5748 32.5884 58.4035 33.1599 58.3447C33.7314 58.2858 34.3091 58.3406 34.8589 58.5059C37.2609 59.164 39.7466 59.475 42.2387 59.4294C48.812 59.3269 55.0913 56.72 59.7669 52.1523C69.855 42.322 69.9497 26.1977 59.9176 16.1461C49.8855 6.09016 33.5715 5.96249 23.4877 15.7928Z" fill="#F8F8F8"/>
<path fill-rule="evenodd" clip-rule="evenodd" d="M14.9281 40.8581C14.5521 41.2756 14.0966 41.6158 13.5876 41.8593C13.0786 42.1028 12.526 42.2448 11.9615 42.2772C11.3969 42.3096 10.8314 42.2318 10.2973 42.0482C9.7632 41.8645 9.27091 41.5787 8.84857 41.207L1.44289 34.696C0.589879 33.9455 0.0734614 32.8907 0.00724961 31.7639C-0.0589622 30.637 0.330455 29.5303 1.08983 28.6872C1.84921 27.8441 2.91635 27.3337 4.05648 27.2682C5.19662 27.2028 6.31636 27.5877 7.16938 28.3382L14.5751 34.8492C14.9975 35.2208 15.3417 35.671 15.5881 36.1741C15.8344 36.6772 15.9781 37.2234 16.0109 37.7814C16.0437 38.3394 15.9649 38.8983 15.7792 39.4262C15.5934 39.9541 15.3042 40.4406 14.9281 40.8581Z" fill="#F8F8F8"/>
<path fill-rule="evenodd" clip-rule="evenodd" d="M8.26729 40.4538C8.60654 40.9009 9.03157 41.2775 9.5181 41.5623C10.0046 41.847 10.5431 42.0342 11.1029 42.1133C11.6626 42.1923 12.2326 42.1616 12.7804 42.0229C13.3281 41.8842 13.8428 41.6402 14.2952 41.3049L22.9064 34.9216C23.82 34.2444 24.4239 33.2363 24.5854 32.119C24.7469 31.0017 24.4527 29.8667 23.7675 28.9638C23.0824 28.0609 22.0624 27.464 20.9319 27.3043C19.8015 27.1447 18.6532 27.4355 17.7397 28.1127L9.12841 34.496C8.67607 34.8313 8.29499 35.2514 8.00691 35.7323C7.71883 36.2132 7.5294 36.7454 7.44944 37.2986C7.36947 37.8519 7.40054 38.4153 7.54087 38.9566C7.6812 39.498 7.92803 40.0067 8.26729 40.4538ZM40.9039 16.6227C42.0459 16.6227 43.141 17.071 43.9485 17.8691C44.7559 18.6672 45.2096 19.7496 45.2096 20.8782V35.7727C45.2096 36.9013 44.7559 37.9838 43.9485 38.7818C43.141 39.5799 42.0459 40.0283 40.9039 40.0283C39.762 40.0283 38.6669 39.5799 37.8594 38.7818C37.0519 37.9838 36.5983 36.9013 36.5983 35.7727V20.8782C36.5983 19.7496 37.0519 18.6672 37.8594 17.8691C38.6669 17.071 39.762 16.6227 40.9039 16.6227Z" fill="#F8F8F8"/>
<path fill-rule="evenodd" clip-rule="evenodd" d="M58.1265 35.7727C58.1265 36.9013 57.6729 37.9838 56.8654 38.7818C56.0579 39.5799 54.9628 40.0283 53.8209 40.0283H40.904C39.7621 40.0283 38.6669 39.5799 37.8594 38.7818C37.052 37.9838 36.5984 36.9013 36.5984 35.7727C36.5984 34.644 37.052 33.5616 37.8594 32.7636C38.6669 31.9655 39.7621 31.5171 40.904 31.5171H53.8209C54.9628 31.5171 56.0579 31.9655 56.8654 32.7636C57.6729 33.5616 58.1265 34.644 58.1265 35.7727Z" fill="#F8F8F8"/>
</svg>
