<svg width="31" height="35" viewBox="0 0 31 35" fill="none" xmlns="http://www.w3.org/2000/svg">
<path d="M9.42308 16.1538C7.63797 16.1538 5.92597 15.4447 4.6637 14.1824C3.40144 12.9202 2.69231 11.2082 2.69231 9.42308V4.03846C2.69231 3.68144 2.83413 3.33904 3.08659 3.08659C3.33904 2.83413 3.68144 2.69231 4.03846 2.69231H5.38461C5.74164 2.69231 6.08404 2.55048 6.33649 2.29803C6.58894 2.04558 6.73077 1.70318 6.73077 1.34615C6.73077 0.989132 6.58894 0.646732 6.33649 0.394279C6.08404 0.141826 5.74164 0 5.38461 0H4.03846C2.96739 0 1.9402 0.42548 1.18284 1.18284C0.42548 1.9402 0 2.96739 0 4.03846V9.42308C0.00173037 10.9439 0.372578 12.4415 1.08069 13.7874C1.78881 15.1333 2.81302 16.2872 4.06538 17.15C5.26861 18.2108 6.24442 19.5044 6.93388 20.9528C7.62335 22.4011 8.01219 23.9741 8.07692 25.5769C8.07692 28.0761 9.06971 30.4729 10.8369 32.24C12.604 34.0072 15.0008 35 17.5 35C19.9992 35 22.3959 34.0072 24.1631 32.24C25.9303 30.4729 26.9231 28.0761 26.9231 25.5769V24.0423C28.192 23.7147 29.2979 22.9355 30.0335 21.8508C30.7691 20.7661 31.0838 19.4503 30.9186 18.1502C30.7535 16.8501 30.1198 15.6548 29.1365 14.7884C28.1531 13.922 26.8875 13.4441 25.5769 13.4441C24.2663 13.4441 23.0008 13.922 22.0174 14.7884C21.034 15.6548 20.4004 16.8501 20.2352 18.1502C20.0701 19.4503 20.3848 20.7661 21.1203 21.8508C21.8559 22.9355 22.9618 23.7147 24.2308 24.0423V25.5769C24.2308 27.362 23.5216 29.074 22.2594 30.3363C20.9971 31.5986 19.2851 32.3077 17.5 32.3077C15.7149 32.3077 14.0029 31.5986 12.7406 30.3363C11.4784 29.074 10.7692 27.362 10.7692 25.5769C10.8374 23.9722 11.2304 22.3979 11.9246 20.9495C12.6187 19.501 13.5995 18.2084 14.8077 17.15C16.0551 16.2842 17.0741 15.129 17.7774 13.7833C18.4807 12.4376 18.8474 10.9415 18.8462 9.42308V4.03846C18.8462 2.96739 18.4207 1.9402 17.6633 1.18284C16.906 0.42548 15.8788 0 14.8077 0H13.4615C13.1045 0 12.7621 0.141826 12.5097 0.394279C12.2572 0.646732 12.1154 0.989132 12.1154 1.34615C12.1154 1.70318 12.2572 2.04558 12.5097 2.29803C12.7621 2.55048 13.1045 2.69231 13.4615 2.69231H14.8077C15.1647 2.69231 15.5071 2.83413 15.7596 3.08659C16.012 3.33904 16.1538 3.68144 16.1538 4.03846V9.42308C16.1538 10.307 15.9797 11.1822 15.6415 11.9988C15.3032 12.8154 14.8075 13.5574 14.1824 14.1824C13.5574 14.8075 12.8154 15.3032 11.9988 15.6415C11.1822 15.9797 10.307 16.1538 9.42308 16.1538ZM25.5769 21.5385C24.8629 21.5385 24.1781 21.2548 23.6732 20.7499C23.1683 20.245 22.8846 19.5602 22.8846 18.8462C22.8846 18.1321 23.1683 17.4473 23.6732 16.9424C24.1781 16.4375 24.8629 16.1538 25.5769 16.1538C26.291 16.1538 26.9758 16.4375 27.4807 16.9424C27.9856 17.4473 28.2692 18.1321 28.2692 18.8462C28.2692 19.5602 27.9856 20.245 27.4807 20.7499C26.9758 21.2548 26.291 21.5385 25.5769 21.5385Z" fill="#F8F8F8"/>
</svg>
