<svg width="48" height="48" viewBox="0 0 48 48" fill="none" xmlns="http://www.w3.org/2000/svg">
<path fill-rule="evenodd" clip-rule="evenodd" d="M8.344 6.344C6 8.686 6 12.458 6 20V28C6 35.542 6 39.314 8.344 41.656C10.686 44 14.458 44 22 44H26C33.542 44 37.314 44 39.656 41.656C42 39.314 42 35.542 42 28V20C42 12.458 42 8.686 39.656 6.344C37.314 4 33.542 4 26 4H22C14.458 4 10.686 4 8.344 6.344ZM25.5 12C25.5 11.6022 25.342 11.2206 25.0607 10.9393C24.7794 10.658 24.3978 10.5 24 10.5C23.6022 10.5 23.2206 10.658 22.9393 10.9393C22.658 11.2206 22.5 11.6022 22.5 12V14.5H20C19.6022 14.5 19.2206 14.658 18.9393 14.9393C18.658 15.2206 18.5 15.6022 18.5 16C18.5 16.3978 18.658 16.7794 18.9393 17.0607C19.2206 17.342 19.6022 17.5 20 17.5H22.5V20C22.5 20.3978 22.658 20.7794 22.9393 21.0607C23.2206 21.342 23.6022 21.5 24 21.5C24.3978 21.5 24.7794 21.342 25.0607 21.0607C25.342 20.7794 25.5 20.3978 25.5 20V17.5H28C28.3978 17.5 28.7794 17.342 29.0607 17.0607C29.342 16.7794 29.5 16.3978 29.5 16C29.5 15.6022 29.342 15.2206 29.0607 14.9393C28.7794 14.658 28.3978 14.5 28 14.5H25.5V12ZM16 26.5C15.6022 26.5 15.2206 26.658 14.9393 26.9393C14.658 27.2206 14.5 27.6022 14.5 28C14.5 28.3978 14.658 28.7794 14.9393 29.0607C15.2206 29.342 15.6022 29.5 16 29.5H32C32.3978 29.5 32.7794 29.342 33.0607 29.0607C33.342 28.7794 33.5 28.3978 33.5 28C33.5 27.6022 33.342 27.2206 33.0607 26.9393C32.7794 26.658 32.3978 26.5 32 26.5H16ZM18 34.5C17.6022 34.5 17.2206 34.658 16.9393 34.9393C16.658 35.2206 16.5 35.6022 16.5 36C16.5 36.3978 16.658 36.7794 16.9393 37.0607C17.2206 37.342 17.6022 37.5 18 37.5H30C30.3978 37.5 30.7794 37.342 31.0607 37.0607C31.342 36.7794 31.5 36.3978 31.5 36C31.5 35.6022 31.342 35.2206 31.0607 34.9393C30.7794 34.658 30.3978 34.5 30 34.5H18Z" fill="#F8F8F8"/>
</svg>
