<svg width="48" height="48" viewBox="0 0 48 48" fill="none" xmlns="http://www.w3.org/2000/svg">
<path d="M20.3812 2.57156C17.7656 2.61563 15.4031 4.17563 14.3344 6.58781L27.1312 10.4531C27.6937 7.09781 25.6781 3.84469 22.4344 2.8575C21.8531 2.68125 21.2437 2.58469 20.6344 2.57156H20.3812ZM13.8469 8.20406C13.275 11.5688 15.2906 14.8312 18.5437 15.8156C21.8062 16.8 25.2844 15.1875 26.6531 12.0656L13.8469 8.20406ZM38.7375 12.3563C36.3656 12.3656 33.8437 13.5094 31.9406 16.2L20.2406 32.7844C17.1 37.2281 18.4687 41.8781 21.5625 44.0719C24.6656 46.275 29.4937 46.0219 32.6344 41.5781L44.325 25.0031C47.4656 20.55 46.0969 15.9094 43.0031 13.7063C41.8406 12.8813 40.4437 12.4031 38.9719 12.3563H38.7375ZM38.5687 13.9781C38.6906 13.9781 38.8125 13.9781 38.925 13.9875C40.0594 14.0344 41.1281 14.4375 42.0281 15.0844C44.4375 16.7906 45.6469 20.1937 42.9375 24.0281L36.8906 32.6062C33.5344 31.7062 29.2219 28.6406 27.2625 25.7625L33.3281 17.175C34.9125 14.9344 36.7969 14.0156 38.5687 13.9781ZM8.55468 21.1219C7.65281 21.1312 6.76312 21.3187 5.93625 21.6844C2.83218 23.0437 1.21687 26.5125 2.16375 29.775L14.4187 24.4219C13.1906 22.35 10.9594 21.0938 8.55468 21.1219ZM15.0844 25.9594L2.83125 31.3219C4.56093 34.2656 8.20312 35.4469 11.325 34.0875C14.4375 32.7188 16.05 29.2312 15.0844 25.9594Z" fill="#F8F8F8"/>
</svg>
